HIERARCHY
ROOT root
{
	OFFSET 0.000000 0.000000 0.000000
	CHANNELS 6 Xposition Yposition Zposition Zrotation Yrotation Xrotation
	JOINT lhip
	{
		OFFSET 0.058581 -0.082280 -0.017664
		CHANNELS 3 Zrotation Yrotation Xrotation
		JOINT lknee
		{
			OFFSET 0.043451 -0.386469 0.008037
			CHANNELS 3 Zrotation Yrotation Xrotation
			JOINT lankle
			{
				OFFSET -0.014790 -0.426874 -0.037428
				CHANNELS 3 Zrotation Yrotation Xrotation
				JOINT ltoe
				{
					OFFSET 0.041054 -0.060286 0.122042
					CHANNELS 3 Zrotation Yrotation Xrotation
					End Site
					{
						OFFSET 0.000000 0.000000 0.000000
					}
				}
			}
		}
	}
	JOINT rhip
	{
		OFFSET -0.060310 -0.090513 -0.013543
		CHANNELS 3 Zrotation Yrotation Xrotation
		JOINT rknee
		{
			OFFSET -0.043257 -0.383688 -0.004843
			CHANNELS 3 Zrotation Yrotation Xrotation
			JOINT rankle
			{
				OFFSET 0.019056 -0.420046 -0.034562
				CHANNELS 3 Zrotation Yrotation Xrotation
				JOINT rtoe
				{
					OFFSET -0.034840 -0.062106 0.130323
					CHANNELS 3 Zrotation Yrotation Xrotation
					End Site
					{
						OFFSET 0.000000 0.000000 0.000000
					}
				}
			}
		}
	}
	JOINT lowerback
	{
		OFFSET 0.004439 0.124404 -0.038385
		CHANNELS 3 Zrotation Yrotation Xrotation
		JOINT upperback
		{
			OFFSET 0.004488 0.137956 0.026820
			CHANNELS 3 Zrotation Yrotation Xrotation
			JOINT chest
			{
				OFFSET -0.002265 0.056032 0.002855
				CHANNELS 3 Zrotation Yrotation Xrotation
				JOINT lowerneck
				{
					OFFSET -0.013390 0.211636 -0.033468
					CHANNELS 3 Zrotation Yrotation Xrotation
					JOINT upperneck
					{
						OFFSET 0.010113 0.088937 0.050410
						CHANNELS 3 Zrotation Yrotation Xrotation
						End Site
						{
							OFFSET 0.000000 0.000000 0.000000
						}
					}
				}
				JOINT lclavicle
				{
					OFFSET 0.071702 0.114000 -0.018898
					CHANNELS 3 Zrotation Yrotation Xrotation
					JOINT lshoulder
					{
						OFFSET 0.122921 0.045205 -0.019046
						CHANNELS 3 Zrotation Yrotation Xrotation
						JOINT lelbow
						{
							OFFSET 0.255332 -0.015649 -0.022946
							CHANNELS 3 Zrotation Yrotation Xrotation
							JOINT lwrist
							{
								OFFSET 0.265709 0.012698 -0.007375
								CHANNELS 3 Zrotation Yrotation Xrotation
								End Site
								{
									OFFSET 0.000000 0.000000 0.000000
								}
							}
						}
					}
				}
				JOINT rclavicle
				{
					OFFSET -0.082954 0.112472 -0.023707
					CHANNELS 3 Zrotation Yrotation Xrotation
					JOINT rshoulder
					{
						OFFSET -0.113228 0.046853 -0.008472
						CHANNELS 3 Zrotation Yrotation Xrotation
						JOINT relbow
						{
							OFFSET -0.260127 -0.014369 -0.031269
							CHANNELS 3 Zrotation Yrotation Xrotation
							JOINT rwrist
							{
								OFFSET -0.269108 0.006794 -0.006027
								CHANNELS 3 Zrotation Yrotation Xrotation
								End Site
								{
									OFFSET 0.000000 0.000000 0.000000
								}
							}
						}
					}
				}
			}
		}
	}
}
MOTION
Frames: 5
Frame Time: 0.033333
-0.880090 -1.823233 0.977279 156.837621 -1.283867 91.756230 2.430762 -3.336065 -8.767957 -6.855945 -4.773339 19.852186 6.388819 -0.115860 -17.343809 0.000000 -0.000000 0.000000 -4.421864 -6.851834 -0.255289 1.302893 -3.782820 8.949156 -1.835916 -8.522475 -14.025033 0.000000 -0.000000 0.000000 1.391903 2.141044 0.193072 -1.291961 -0.072323 6.338061 1.304751 -0.674599 -4.761122 -11.059573 -1.883688 12.010429 -8.003731 31.581739 -15.884510 -27.272873 8.202291 12.512960 -61.776235 1.186879 9.134759 -156.096560 -60.881239 -173.142376 24.561491 -8.160812 -25.344645 16.772531 0.675928 17.031267 70.396698 0.034813 9.457569 -92.400372 75.688359 -85.759425 -8.369914 7.602952 -25.141174 
-0.879700 -1.823272 0.976728 156.919909 -0.642235 92.010182 3.138475 -0.548341 -9.653111 -6.396224 -4.488622 21.273316 6.238643 -2.795637 -18.490321 0.000000 -0.000000 0.000000 -3.568314 -6.954518 -0.771850 1.273051 -3.182095 9.523103 -1.708728 -9.194782 -14.514849 0.000000 -0.000000 0.000000 2.127805 1.779239 0.590575 -1.464518 0.399196 5.878800 1.583519 -0.833139 -4.868672 -11.013929 -2.333032 10.977626 -7.845229 31.974655 -14.169012 -27.316906 8.357143 11.806462 -61.793158 1.840843 8.642357 -154.529103 -60.349094 -173.879896 24.918724 -7.913943 -26.409260 16.550319 0.665131 16.595321 70.431427 -0.775669 9.398669 -96.200990 76.952878 -88.446334 -7.827744 7.881233 -23.960111 
-0.879694 -1.822828 0.976090 156.593644 -0.714367 92.230142 3.100550 -1.447711 -10.331503 -6.972710 -4.389135 22.316634 6.775791 -1.295185 -18.708713 0.000000 -0.000000 0.000000 -3.691855 -6.781803 -1.641049 1.471786 -3.317079 10.853180 -2.123100 -9.291778 -15.927358 0.000000 -0.000000 0.000000 1.905376 1.964895 0.413568 -1.300777 0.487369 5.704047 1.532512 -0.877100 -4.480414 -10.653861 -2.047529 10.759870 -7.802873 31.667692 -13.854155 -27.207968 8.400991 11.809822 -61.855403 1.766227 8.970847 -154.497586 -60.302282 -173.531409 25.586751 -7.735662 -26.918421 16.543298 0.433638 16.540528 70.480900 -0.336662 9.346653 -94.913042 76.771369 -86.836538 -7.473276 7.414902 -24.705264 
-0.879183 -1.821686 0.974705 156.423510 -0.641546 92.267009 3.156904 -1.626797 -10.843617 -7.512720 -4.634739 23.568492 7.048932 -0.452026 -19.281233 0.000000 -0.000000 0.000000 -3.691884 -6.665376 -2.598231 1.548172 -3.391069 12.747313 -2.546076 -9.301848 -17.225060 0.000000 -0.000000 0.000000 1.995244 1.866174 0.510619 -1.202404 0.459443 5.565511 1.230914 -0.798719 -4.030527 -10.009080 -1.321459 10.070335 -7.826577 31.323288 -13.631107 -26.846794 8.752752 11.282013 -61.870908 1.775629 9.122712 -154.073435 -60.069394 -173.543594 25.786517 -7.636659 -27.084796 16.600889 0.034589 16.145477 70.560729 -0.001142 9.354581 -94.370680 76.753321 -86.142387 -6.921256 7.046305 -25.235726 
-0.878571 -1.820902 0.974433 156.214496 -0.480264 92.088434 3.341017 -1.038259 -11.256408 -7.816141 -4.493298 25.096342 7.124846 -0.516805 -20.098324 0.000000 -0.000000 0.000000 -3.523804 -6.407704 -3.034534 1.563566 -3.399031 14.101951 -2.963099 -9.451751 -18.047739 0.000000 -0.000000 0.000000 2.140670 1.684037 0.516599 -1.193385 0.567465 5.787714 1.208647 -0.767637 -3.932962 -9.788538 -1.362917 9.944979 -7.679528 31.120286 -13.243680 -26.915257 8.510534 11.288772 -61.954837 1.964524 8.876983 -154.826173 -59.948607 -172.713429 25.313121 -7.255007 -27.386874 16.753319 0.240457 16.299371 70.551523 0.297927 8.870963 -93.093758 76.591588 -85.152503 -6.361574 6.793249 -25.897319 
